<?xml version="1.0" encoding="UTF-8" standalone="no"?>
<!-- Created with Inkscape (http://www.inkscape.org/) -->

<svg
   width="210mm"
   height="297mm"
   viewBox="0 0 744.09448819 1052.3622047"
   id="svg4836"
   version="1.1"
   inkscape:version="1.2 (dc2aedaf03, 2022-05-15)"
   sodipodi:docname="rocket-white.svg"
   xmlns:inkscape="http://www.inkscape.org/namespaces/inkscape"
   xmlns:sodipodi="http://sodipodi.sourceforge.net/DTD/sodipodi-0.dtd"
   xmlns="http://www.w3.org/2000/svg"
   xmlns:svg="http://www.w3.org/2000/svg"
   xmlns:rdf="http://www.w3.org/1999/02/22-rdf-syntax-ns#"
   xmlns:cc="http://creativecommons.org/ns#"
   xmlns:dc="http://purl.org/dc/elements/1.1/">
  <defs
     id="defs4838" />
  <sodipodi:namedview
     id="base"
     pagecolor="#ffffff"
     bordercolor="#666666"
     borderopacity="1.0"
     inkscape:pageopacity="0.0"
     inkscape:pageshadow="2"
     inkscape:zoom="0.49497475"
     inkscape:cx="-266.68027"
     inkscape:cy="511.13718"
     inkscape:document-units="px"
     inkscape:current-layer="layer1"
     showgrid="false"
     inkscape:window-width="1920"
     inkscape:window-height="1009"
     inkscape:window-x="-8"
     inkscape:window-y="-8"
     inkscape:window-maximized="1"
     inkscape:showpageshadow="2"
     inkscape:pagecheckerboard="0"
     inkscape:deskcolor="#d1d1d1" />
  <metadata
     id="metadata4841">
    <rdf:RDF>
      <cc:Work
         rdf:about="">
        <dc:format>image/svg+xml</dc:format>
        <dc:type
           rdf:resource="http://purl.org/dc/dcmitype/StillImage" />
      </cc:Work>
    </rdf:RDF>
  </metadata>
  <g
     inkscape:label="Livello 1"
     inkscape:groupmode="layer"
     id="layer1">
    <g
       id="g4500"
       transform="matrix(1.0653901,0.01145734,0.00991575,1.0884893,1979.6503,28.040778)"
       inkscape:export-filename="g4500.png"
       inkscape:export-xdpi="300"
       inkscape:export-ydpi="300">
      <path
         sodipodi:nodetypes="ccc"
         inkscape:connector-curvature="0"
         id="path4442"
         d="m -1837.8571,348.07649 c 3.1125,-119.32131 36.1511,-228.22713 107.1838,-332.642843 71.0328,104.401753 104.0714,213.307573 107.1839,332.628883"
         style="fill:none;fill-rule:evenodd;stroke:#000000;stroke-width:24.6094;stroke-linecap:round;stroke-linejoin:round;stroke-miterlimit:4;stroke-dasharray:none;stroke-opacity:1" />
      <path
         sodipodi:nodetypes="cccc"
         inkscape:connector-curvature="0"
         id="path4444"
         d="m -1753,558.79076 c 11.1356,19.47311 -22.8024,31.5752 16.2294,55.60017 15.7212,-45.60017 110.8931,-49.51115 8.4135,-110.24302 -34.0595,10.96796 -104.5273,77.98486 -24.6429,54.64285 z"
         style="fill:none;fill-rule:evenodd;stroke:#000000;stroke-width:13.9298;stroke-linecap:round;stroke-linejoin:round;stroke-miterlimit:4;stroke-dasharray:none;stroke-opacity:1" />
      <path
         sodipodi:nodetypes="ccc"
         inkscape:connector-curvature="0"
         id="path4459"
         d="m -1840.7143,380.93363 110.041,-0.007 110.0411,-0.007"
         style="fill:none;fill-rule:evenodd;stroke:#000000;stroke-width:13.9298;stroke-linecap:round;stroke-linejoin:miter;stroke-miterlimit:4;stroke-dasharray:none;stroke-opacity:1" />
      <path
         sodipodi:nodetypes="ccc"
         inkscape:connector-curvature="0"
         id="path4472-5"
         d="m -1643.4894,410.91967 -87.1838,0.007 -87.1839,0.007"
         style="fill:none;fill-rule:evenodd;stroke:#000000;stroke-width:13.9298;stroke-linecap:round;stroke-linejoin:miter;stroke-miterlimit:4;stroke-dasharray:none;stroke-opacity:1" />
      <path
         sodipodi:nodetypes="czc"
         inkscape:connector-curvature="0"
         id="path4474-7"
         d="m -1689.9179,493.77682 c -0.7143,-1.42858 -22.6063,-54.29364 -40.7554,-54.27874 -18.149,0.0149 -40.041,52.86412 -40.7553,54.2927"
         style="fill:none;fill-rule:evenodd;stroke:#000000;stroke-width:24.6094;stroke-linecap:round;stroke-linejoin:round;stroke-miterlimit:4;stroke-dasharray:none;stroke-opacity:1" />
    </g>
    <path
       style="fill:#ffffff;stroke-width:2.02031"
       d="m 265.30885,425.90308 c -6.4413,-3.11412 -8.26465,-10.02481 -9.57241,-36.2808 C 252.44965,323.63374 236.65573,248.35772 212.77413,184.85792 196.90635,142.66642 150.9948,52.527932 145.37256,52.527932 c -5.51328,0 -46.896027,82.028868 -62.405691,123.700538 -24.294908,65.27605 -38.97815,137.63492 -41.717926,205.58549 -0.605358,15.0138 -1.498578,29.2798 -1.984932,31.70223 -2.143548,10.67654 -13.661941,14.1266 -21.383611,6.40493 -4.178647,-4.17866 -4.293353,-5.45895 -3.031847,-33.84011 C 20.417968,260.78118 55.9546,145.63744 121.98353,38.948427 c 13.92482,-22.49962 16.09844,-24.806291 23.37537,-24.806291 6.87073,0 7.46243,0.687266 25.91726,30.10316 32.09768,51.161769 65.86875,125.811564 81.89164,181.018724 16.96481,58.45247 29.64263,136.30467 29.668,182.1859 0.006,11.08048 -0.59015,12.94991 -5.31631,16.66752 -5.98412,4.7071 -6.12514,4.72773 -12.21064,1.78564 z"
       id="path279"
       transform="scale(0.9375)" />
    <path
       style="fill:#ffffff;stroke-width:2.02031"
       d="m 58.588848,457.12688 c -31.699403,-0.49978 -37.747286,-1.08799 -39.822746,-3.87314 -1.70934,-2.29384 -1.837517,-4.42289 -0.425154,-7.06192 1.953607,-3.65035 6.304089,-3.734 128.716172,-2.475 71.33719,0.7337 128.29258,2.12476 130.35235,3.18368 2.22455,1.14363 3.41217,3.60845 3.03045,6.28961 l -0.62767,4.40899 -91.92388,0.0585 c -50.55813,0.0322 -108.742918,-0.20665 -129.299522,-0.53074 z"
       id="path281"
       transform="scale(0.9375)" />
    <path
       style="fill:#ffffff;stroke-width:2.02031"
       d="m 143.78273,492.99356 c -91.906808,-1.00849 -95.735612,-1.20275 -98.509638,-4.99797 -2.491367,-3.40851 -2.494287,-4.34061 -0.02135,-6.81355 2.405453,-2.40546 18.824965,-2.80677 102.392278,-2.50261 60.28519,0.21941 100.98371,1.14163 103.22092,2.33895 7.83648,4.19396 1.76694,14.70439 -7.79044,13.49041 -2.0176,-0.25627 -46.69889,-0.93813 -99.29177,-1.51523 z"
       id="path283"
       transform="scale(0.9375)" />
    <path
       style="fill:#ffffff;stroke-width:2.02031"
       d="m 188.57056,591.44431 c -2.23452,-2.50012 -7.89263,-12.27335 -12.57358,-21.71827 -10.76517,-21.72126 -21.3457,-36.3655 -26.27424,-36.3655 -5.37147,0 -13.66605,11.6958 -26.49143,37.35432 -10.88676,21.78012 -11.27304,22.25754 -18.49586,22.86027 -5.801949,0.48416 -8.064847,-0.36663 -10.599298,-3.98506 -4.775928,-6.81859 -4.1154,-10.2063 5.963428,-30.58516 30.4952,-61.65969 55.37367,-68.88383 84.8194,-24.62962 10.0873,15.16028 25.19275,44.95814 25.19275,49.69664 0,3.44557 -9.73794,11.91807 -13.69814,11.91807 -2.07915,0 -5.60851,-2.04556 -7.84303,-4.54569 z"
       id="path285"
       transform="scale(0.9375)" />
    <path
       style="fill:#ffffff;stroke-width:2.02031"
       d="m 134.02209,722.76181 c -10.21287,-7.97127 -18.87249,-20.69044 -18.84283,-27.67618 0.0121,-2.8333 1.37573,-9.61433 3.03046,-15.06898 1.65472,-5.45465 3.00859,-10.56804 3.00859,-11.36311 0,-0.79506 -8.02415,-0.98805 -17.83145,-0.42886 -17.590165,1.00294 -17.890862,0.94115 -22.223351,-4.56672 -2.415554,-3.07088 -4.391916,-7.55566 -4.391916,-9.96618 0,-11.49511 22.646097,-36.00397 49.413237,-53.47775 22.26465,-14.53451 25.99455,-14.83617 42.9031,-3.46974 22.02667,14.80697 34.18433,26.54609 40.17626,38.79316 4.89752,10.01017 5.2253,11.96959 3.15708,18.87269 -3.24362,10.82625 -8.03326,16.24371 -30.31324,34.28668 -17.4098,14.09896 -24.5529,22.07614 -31.86206,35.58255 -3.2829,6.06638 -6.9463,5.72371 -16.22388,-1.51756 z m 43.39642,-47.97991 c 18.78674,-15.24567 23.45272,-21.78517 21.59119,-30.26064 -1.51405,-6.89346 -12.26765,-18.5164 -27.56243,-29.79067 -18.16116,-13.38715 -18.49197,-13.4736 -29.74238,-7.77259 -18.60708,9.42892 -50.791161,38.65026 -50.791161,46.11552 0,2.00657 16.819421,1.07927 31.826661,-1.75469 6.13703,-1.15891 6.79188,-0.72359 9.87612,6.56524 3.05957,7.23054 3.05781,8.77527 -0.0238,20.93844 -4.35907,17.20519 -4.23964,18.76821 2.00078,26.18452 l 5.29394,6.29149 10.6745,-11.69232 c 5.87097,-6.43077 17.95644,-17.60171 26.8566,-24.8243 z"
       id="path287"
       transform="scale(0.9375)" />
  </g>
</svg>
